<?xml version="1.0" standalone="no"?>
<svg
  width="600"
  height="600"
  viewBox="0 0 600 600"
  xmlns="http://www.w3.org/2000/svg"
>
  <g transform="translate(300,300)">
    <path d="M97.7,-140.3C125.4,-134.1,145.9,-105.1,177.5,-70.8C209,-36.6,251.5,2.8,255.5,43C259.5,83.2,225,124.1,188.1,158.3C151.2,192.5,111.9,220,76.4,205.3C40.9,190.6,9.2,133.7,-28.9,114.9C-66.9,96.1,-111.3,115.5,-138.9,107.2C-166.5,98.9,-177.3,63,-153.4,39.5C-129.6,16.1,-71.2,5.1,-59.2,-29.5C-47.2,-64.2,-81.7,-122.5,-79.6,-140.4C-77.5,-158.2,-38.7,-135.6,-1.9,-132.7C35,-129.7,69.9,-146.5,97.7,-140.3Z" fill="#9900ef" />
  </g>
</svg>
  