<?xml version="1.0" standalone="no"?>
<svg
  width="600"
  height="600"
  viewBox="0 0 600 600"
  xmlns="http://www.w3.org/2000/svg"
>
  <g transform="translate(300,300)">
    <path d="M121.1,-194.5C151.5,-169,166.7,-126.1,178.3,-85.8C189.9,-45.5,197.9,-8,191.9,27C185.9,61.9,165.9,94.1,143.9,131.1C121.8,168.1,97.8,209.7,66.1,214.1C34.3,218.4,-5.3,185.5,-41.2,164.1C-77.2,142.7,-109.7,132.9,-150.7,114.5C-191.7,96,-241.4,68.9,-260.3,29C-279.2,-11,-267.4,-63.9,-233,-92.7C-198.5,-121.6,-141.4,-126.4,-98.8,-146.3C-56.2,-166.2,-28.1,-201.1,8.7,-214.5C45.4,-228,90.8,-220,121.1,-194.5Z" fill="#00d084" />
  </g>
</svg>
  