<?xml version="1.0" standalone="no"?>
<svg
  width="600"
  height="600"
  viewBox="0 0 600 600"
  xmlns="http://www.w3.org/2000/svg"
>
  <g transform="translate(300,300)">
    <path d="M127.5,-209.8C152.9,-182,152.9,-125.9,170.3,-80C187.7,-34.2,222.5,1.4,234.6,45.6C246.6,89.7,235.9,142.4,202.8,169.4C169.6,196.3,114,197.5,65.2,203.2C16.4,208.8,-25.4,219.1,-64.1,211.1C-102.8,203.1,-138.3,176.9,-152.5,142.3C-166.7,107.7,-159.6,64.8,-158.2,27.1C-156.8,-10.6,-161.2,-43.1,-153.5,-74.4C-145.9,-105.6,-126.2,-135.7,-98.6,-162.6C-71,-189.5,-35.5,-213.2,7.7,-225.3C51,-237.4,102,-237.7,127.5,-209.8Z" fill="#0693e3" />
  </g>
</svg>
  