<?xml version="1.0" standalone="no"?>
<svg
  width="600"
  height="600"
  viewBox="0 0 600 600"
  xmlns="http://www.w3.org/2000/svg"
>
  <g transform="translate(300,300)">
    <path d="M136.9,-222.7C169.7,-192,183.1,-140.9,204.9,-93.5C226.7,-46.1,256.9,-2.4,261.4,44.9C265.9,92.1,244.8,143,206.9,170C169,197,114.4,200.2,65.2,208.5C16,216.8,-27.8,230.3,-67.5,222.1C-107.2,214,-142.8,184.3,-178.8,150.6C-214.9,116.8,-251.5,79.1,-261.2,35.4C-270.9,-8.4,-253.7,-58.2,-226.9,-98.2C-200.2,-138.2,-163.9,-168.4,-124.5,-196C-85.1,-223.7,-42.5,-248.8,4.8,-256.3C52.1,-263.7,104.2,-253.4,136.9,-222.7Z" fill="#eb144c" />
  </g>
</svg>
  